<!--?xml version="1.0" encoding="utf-8"?-->
<!-- Generator: Adobe Illustrator 24.1.1, SVG Export Plug-In . SVG Version: 6.00 Build 0)  -->
<svg version="1.1" id="_x31_0" xmlns="http://www.w3.org/2000/svg" xmlns:xlink="http://www.w3.org/1999/xlink" x="0px" y="0px" viewBox="0 0 512 512" style="width: 256px; height: 256px; opacity: 1;" xml:space="preserve">
<style type="text/css">
	.st0{fill:#374149;}
</style>
<g>
	<path class="st0" d="M474.745,388.922c1.946-3.195,3.821-6.442,5.63-9.731c0.41-0.742,0.82-1.484,1.222-2.234
		c1.558-2.898,3.058-5.832,4.504-8.797c0.535-1.094,1.066-2.187,1.586-3.289c1.297-2.758,2.543-5.539,3.746-8.352
		c0.539-1.258,1.066-2.519,1.582-3.785c1.136-2.786,2.23-5.594,3.269-8.426c0.454-1.227,0.891-2.462,1.321-3.696
		c1.047-2.988,2.043-6,2.981-9.039c0.304-0.984,0.594-1.972,0.882-2.961c0.996-3.375,1.934-6.77,2.793-10.199
		c0.133-0.531,0.254-1.066,0.383-1.598c6-24.61,8.523-50.582,6.832-77.411c-1.817-28.707-8.504-56.176-19.184-81.63
		C466.261,95.224,416.093,45.192,353.44,19.36C328.205,8.875,300.997,2.313,272.583,0.519c-32.382-2.042-63.539,2.004-92.52,10.997
		c-0.653,0.203-1.313,0.378-1.961,0.586c-2.801,0.894-5.563,1.875-8.321,2.863c-1.523,0.539-3.05,1.059-4.562,1.629
		c-2.238,0.852-4.446,1.77-6.653,2.68c-1.926,0.789-3.859,1.57-5.766,2.41c-2.023,0.894-4.015,1.844-6.015,2.789
		c-1.958,0.926-3.918,1.844-5.852,2.821c-2.106,1.058-4.172,2.179-6.246,3.297c-1.687,0.914-3.382,1.816-5.054,2.77
		c-2.422,1.378-4.801,2.82-7.176,4.274c-1.191,0.734-2.386,1.453-3.57,2.202c-2.93,1.864-5.805,3.802-8.652,5.778
		c-0.516,0.359-1.035,0.707-1.551,1.07C80.109,66.837,55.87,92.677,37.569,122.579c-0.066,0.11-0.133,0.211-0.195,0.321
		c-2.032,3.328-3.981,6.703-5.86,10.125c-0.343,0.621-0.683,1.242-1.019,1.867c-1.625,3.012-3.184,6.062-4.688,9.153
		c-0.476,0.98-0.953,1.965-1.422,2.953c-1.344,2.859-2.637,5.742-3.879,8.657c-0.5,1.164-0.988,2.332-1.469,3.507
		c-1.172,2.875-2.301,5.774-3.374,8.699c-0.414,1.134-0.817,2.27-1.215,3.406c-1.082,3.082-2.11,6.188-3.074,9.321
		c-0.274,0.89-0.535,1.789-0.797,2.683c-1.023,3.458-1.984,6.942-2.863,10.458c-0.11,0.445-0.215,0.886-0.32,1.328
		c-6.028,24.672-8.567,50.711-6.868,77.61c1.817,28.75,8.528,56.258,19.239,81.743c25.953,62.258,75.833,112.083,138.13,137.962
		c25.402,10.633,52.805,17.293,81.442,19.102c99.259,6.27,187.256-44.082,234.96-121.826
		C474.445,389.406,474.597,389.168,474.745,388.922z M116.015,244.94l40.102-40.039l77.04,77.102l0.031,0.031l0,0l0.109,0.113
		l130.51-130.442l39.723,39.727l0.312,0.312L233.297,362.222L116.406,245.33L116.015,244.94z" style="fill: rgb(200, 255, 126);"></path>
</g>
</svg>
