<?xml version="1.0" encoding="utf-8"?>
<!-- Generator: Adobe Illustrator 26.3.1, SVG Export Plug-In . SVG Version: 6.00 Build 0)  -->
<svg version="1.1" id="レイヤー_1" xmlns="http://www.w3.org/2000/svg" xmlns:xlink="http://www.w3.org/1999/xlink" x="0px"
	 y="0px" viewBox="0 0 233.1 233" style="enable-background:new 0 0 233.1 233;" xml:space="preserve">
<style type="text/css">
	.st0{fill:#FFFFFF;}
</style>
<g>
	<path class="st0" d="M233.1,61.8c-0.3,2.2-0.6,4.4-0.9,6.6c-1.8,10.6-6.2,20-13.4,28c-5.2,5.7-10.8,11.1-16.2,16.5
		c-2.4,2.5-4.8,4.9-7.3,7.3c-3.1,2.9-6.8,3.9-10.9,2.7c-4.1-1.3-6.6-4.1-7.5-8.3c-0.7-3.2,0.1-6.2,2.1-8.8c0.5-0.6,1-1.2,1.6-1.8
		c6.9-6.9,13.9-13.7,20.6-20.7c7.7-8,10.9-17.8,9.8-28.8c-1.8-16.8-14.5-30-31.4-32.3c-11.3-1.5-21.5,1.6-29.7,9.6
		c-15.3,15-30.4,30.1-45.4,45.4c-5.8,5.8-9,13.1-9.6,21.3c-1.1,14.3,4.4,25.6,16.2,33.8c3.3,2.3,5.3,5.2,5.4,9.2
		c0.1,4.2-1.7,7.6-5.4,9.7c-3.7,2.1-7.6,2.2-11.2-0.1c-11.6-7.3-19.9-17.4-24-30.5C68.9,98,73.5,77.7,90.1,60.7
		c14.3-14.7,28.9-29,43.4-43.5c8.4-8.4,18.5-13.8,30.2-16.1c2.2-0.4,4.4-0.6,6.6-0.9c0.4-0.1,0.8-0.1,1.2-0.2c2.3,0,4.6,0,6.9,0
		c1.4,0.2,2.9,0.3,4.3,0.5c11.2,1.6,21.2,6,29.9,13.4c10.5,9.1,17.1,20.5,19.6,34.2c0.4,2.2,0.6,4.4,0.9,6.6
		C233.1,57.1,233.1,59.5,233.1,61.8z"/>
	<path class="st0" d="M160.3,129.3c-0.3,17.9-5.9,31.7-17.2,43c-14.5,14.6-29.1,29.1-43.6,43.6c-8.4,8.4-18.5,14-30.2,16
		c-19.1,3.4-36-1.4-50.4-14.5c-9.8-8.9-15.9-20.1-18-33.2c-2.7-16.6,1.1-31.7,11.4-45.2c1.7-2.3,3.7-4.4,5.8-6.5
		c6.5-6.6,13-13.1,19.6-19.6c4.1-4.1,10.2-4.6,14.6-1.2c5.4,4.2,5.8,11.7,0.9,16.7c-6.7,6.7-13.4,13.4-20.1,20.1
		c-4.9,4.8-8.2,10.5-9.9,17.1c-5.2,19.9,7.8,40.7,28,44.6c12.5,2.4,23.6-0.6,32.7-9.6c15-14.8,29.9-29.7,44.7-44.7
		c7.6-7.8,10.9-17.4,9.9-28.3c-1.1-11.6-6.7-20.7-16.4-27.2c-5.8-3.9-7-11.2-2.7-16.4c3.4-4.1,9.5-5.2,14.1-2.2
		c13.5,8.7,22.1,20.9,25.6,36.6C159.7,122.7,160,127,160.3,129.3z"/>
</g>
</svg>
