<svg enable-background="new 0 0 512 512" viewBox="0 0 512 512" xmlns="http://www.w3.org/2000/svg"><path d="m504.5 470.7-144.3-144.7c6.9-8.8 13.1-18.2 18.5-28 .2-.3.3-.6.5-1 2.4-4.4 4.7-9 6.8-13.6.9-2 1.7-4.2 2.5-6.2 1.2-3 2.5-6 3.6-9.1.8-2.2 1.4-4.5 2.1-6.7 1-3.1 2-6.2 2.8-9.4.3-1.3.6-2.7.9-4.1 3.5-14.8 5.5-30.3 5.5-46.2 0-27.1-5.3-52.9-14.9-76.4-.1-.3-.2-.6-.3-.8-1.1-2.7-2.3-5.3-3.5-7.9-.2-.4-.3-.7-.5-1.1-1.3-2.7-2.6-5.4-4-8-.1-.2-.2-.5-.4-.7-33.9-63.5-100.6-106.7-177.6-106.8-16.4 0-32.3 2-47.5 5.7-.9.2-1.9.4-2.8.6-3.4.9-6.7 1.9-10 3-2 .6-4.1 1.2-6.1 1.9-3.3 1.2-6.6 2.5-9.8 3.9-1.8.8-3.7 1.4-5.5 2.2-15.3 6.7-29.6 15.3-42.6 25.6-12.7 9.9-24.3 21.3-34.3 34-7 8.8-13.2 18.2-18.6 28.1-.1.1-.1.2-.1.3-2.5 4.7-4.9 9.4-7.1 14.3-.8 1.8-1.5 3.7-2.2 5.5-1.3 3.3-2.7 6.5-3.9 9.8-.7 2-1.2 4-1.8 6-1.1 3.3-2.1 6.7-3 10.1-.3 1.2-.5 2.3-.8 3.5-3.6 15-5.6 30.6-5.6 46.7-.2 111.3 90 201.6 201.2 201.8 16.8 0 33.1-2.1 48.6-5.9.5-.1 1-.2 1.5-.3 3.8-1 7.4-2.1 11.1-3.3 1.7-.5 3.3-1 5-1.5 3.4-1.2 6.6-2.5 9.9-3.9 1.8-.8 3.7-1.4 5.5-2.2 3.8-1.7 7.6-3.6 11.3-5.6 1.1-.6 2.3-1.1 3.4-1.7 9.8-5.4 19.1-11.5 27.9-18.4l144.4 144.8c4.7 4.7 10.9 7.1 17.1 7.1 6.1 0 12.3-2.4 17.1-7.1 9.4-9.5 9.4-24.8 0-34.3zm-151.5-269c0 33-10.7 63.4-28.7 88.2-9.5 13.2-21 24.7-34.2 34.2-24.9 18-55.4 28.5-88.4 28.5-83.3-.1-151-68-150.9-151.3 0-33 10.7-63.5 28.7-88.3 9.4-13.1 21.1-24.7 34.2-34.1 24.8-18 55.4-28.5 88.4-28.5 83.3.1 151 68 150.9 151.3z" fill="#fff"/></svg>